<svg width="20" height="20" viewBox="0 0 20 20" fill="none" xmlns="http://www.w3.org/2000/svg">
<path fill-rule="evenodd" clip-rule="evenodd" d="M13.4652 6.86063C13.4652 8.8187 11.9043 10.3888 9.9575 10.3888C8.01075 10.3888 6.44976 8.8187 6.44976 6.86063C6.44976 4.90181 8.01075 3.33325 9.9575 3.33325C11.9043 3.33325 13.4652 4.90181 13.4652 6.86063ZM9.95751 16.6666C7.09819 16.6666 4.65672 16.2133 4.65672 14.4001C4.65672 12.5861 7.08252 12.1163 9.95751 12.1163C12.8168 12.1163 15.2583 12.5696 15.2583 14.3836C15.2583 16.1968 12.8325 16.6666 9.95751 16.6666ZM14.9642 6.92424C14.9642 7.92242 14.6665 8.85229 14.1442 9.62531C14.0905 9.70487 14.1382 9.81219 14.233 9.8287C14.3636 9.85122 14.4986 9.86398 14.6359 9.86773C16.0051 9.90375 17.2341 9.0174 17.5736 7.68301C18.0765 5.70092 16.5998 3.92147 14.7195 3.92147C14.515 3.92147 14.3195 3.94324 14.1293 3.98226C14.1031 3.98827 14.0755 4.00027 14.0606 4.02354C14.0427 4.05206 14.0561 4.09034 14.074 4.1151C14.6389 4.91139 14.9642 5.88254 14.9642 6.92424ZM17.2318 11.2604C18.1519 11.4413 18.757 11.8105 19.0077 12.3471C19.2196 12.7877 19.2196 13.2988 19.0077 13.7386C18.6242 14.5709 17.3878 14.8381 16.9072 14.9071C16.808 14.9221 16.7282 14.8358 16.7386 14.736C16.9841 12.4297 15.0314 11.3362 14.5262 11.0848C14.5046 11.0735 14.5001 11.0563 14.5023 11.0458C14.5038 11.0383 14.5128 11.0262 14.5292 11.024C15.6223 11.0037 16.7976 11.1538 17.2318 11.2604ZM5.36423 9.86772C5.50153 9.86397 5.63584 9.85196 5.76716 9.82869C5.86193 9.81218 5.90968 9.70486 5.85596 9.62531C5.33364 8.85229 5.03592 7.92241 5.03592 6.92424C5.03592 5.88253 5.36125 4.91138 5.9261 4.11509C5.94401 4.09033 5.95669 4.05205 5.93953 4.02353C5.92461 4.00102 5.89625 3.98826 5.87088 3.98225C5.67986 3.94323 5.48437 3.92146 5.27992 3.92146C3.39957 3.92146 1.9229 5.70091 2.42657 7.683C2.76607 9.0174 3.99501 9.90374 5.36423 9.86772ZM5.49743 11.0453C5.49967 11.0565 5.49519 11.0731 5.4743 11.0851C4.96839 11.3365 3.01567 12.43 3.26116 14.7355C3.27161 14.8361 3.19251 14.9217 3.09327 14.9074C2.61274 14.8383 1.37634 14.5712 0.992807 13.7389C0.780148 13.2983 0.780148 12.788 0.992807 12.3474C1.24352 11.8108 1.84792 11.4416 2.76794 11.2599C3.20296 11.1541 4.37743 11.004 5.47131 11.0243C5.48773 11.0265 5.49594 11.0385 5.49743 11.0453Z" fill="#F77E53"/>
</svg>
