<svg width="20" height="20" viewBox="0 0 20 20" fill="none" xmlns="http://www.w3.org/2000/svg">
<path fill-rule="evenodd" clip-rule="evenodd" d="M11.7677 9.3608H14.0743C14.424 9.3608 14.6988 9.07166 14.6988 8.72299C14.6988 8.36581 14.424 8.08517 14.0743 8.08517H11.7677C11.418 8.08517 11.1432 8.36581 11.1432 8.72299C11.1432 9.07166 11.418 9.3608 11.7677 9.3608ZM16.8138 4.93941C17.3217 4.93941 17.6548 5.118 17.9879 5.5092C18.321 5.90039 18.3792 6.46167 18.3043 6.97108L17.5133 12.5499C17.3634 13.6222 16.4641 14.4123 15.4066 14.4123H6.32198C5.21451 14.4123 4.29856 13.5457 4.20696 12.4231L3.44089 3.15267L2.18354 2.93156C1.85047 2.87203 1.61731 2.54037 1.6756 2.2002C1.73389 1.85237 2.05864 1.62191 2.40004 1.67379L4.38599 1.97909C4.6691 2.03096 4.87727 2.26823 4.90225 2.55738L5.06046 4.46233C5.08544 4.73531 5.30194 4.93941 5.5684 4.93941H16.8138ZM6.18858 15.7564C5.48913 15.7564 4.9229 16.3347 4.9229 17.0491C4.9229 17.7549 5.48913 18.3332 6.18858 18.3332C6.87971 18.3332 7.44594 17.7549 7.44594 17.0491C7.44594 16.3347 6.87971 15.7564 6.18858 15.7564ZM15.5563 15.7564C14.8568 15.7564 14.2906 16.3347 14.2906 17.0491C14.2906 17.7549 14.8568 18.3332 15.5563 18.3332C16.2474 18.3332 16.8136 17.7549 16.8136 17.0491C16.8136 16.3347 16.2474 15.7564 15.5563 15.7564Z" fill="#2076FF"/>
</svg>
