<svg width="66" height="66" viewBox="0 0 66 66" fill="none" xmlns="http://www.w3.org/2000/svg">
<path d="M62.8535 3.16462C61.2701 1.54646 58.9268 0.947956 56.7418 1.58129L5.79014 16.3031C3.48481 16.9428 1.85081 18.77 1.41064 21.088C0.960977 23.4503 2.53164 26.4523 4.58364 27.7063L20.5151 37.4343C22.1491 38.435 24.2581 38.1848 25.6103 36.8295L43.8535 18.5863C44.7718 17.6331 46.2918 17.6331 47.2101 18.5863C48.1285 19.5015 48.1285 20.993 47.2101 21.943L28.9353 40.1861C27.58 41.5415 27.3266 43.6441 28.3241 45.2813L38.0585 61.273C39.1985 63.1698 41.1618 64.2496 43.3151 64.2496C43.5685 64.2496 43.8535 64.2496 44.1068 64.2148C46.5768 63.9013 48.5401 62.2198 49.2685 59.8448L64.3735 9.27629C65.0385 7.12296 64.4368 4.77962 62.8535 3.16462" stroke="#F77E53" stroke-width="2"/>
<path d="M2.99933 46.9998L9.99933 39.9998" stroke="#F77E53" stroke-width="2" stroke-linecap="round"/>
<path d="M14.9993 50.9998L21.9993 43.9998" stroke="#F77E53" stroke-width="2" stroke-linecap="round"/>
<path d="M17.9993 62.9998L24.9993 55.9998" stroke="#F77E53" stroke-width="2" stroke-linecap="round"/>
</svg>
